<svg xmlns="http://www.w3.org/2000/svg" xmlns:xlink="http://www.w3.org/1999/xlink" width="2000" zoomAndPan="magnify" viewBox="0 0 1500 1499.999933" height="2000" preserveAspectRatio="xMidYMid meet" version="1.0"><defs><g/><clipPath id="f64c1ad8d7"><path d="M 366.671875 318.886719 L 1133.171875 318.886719 L 1133.171875 1174.636719 L 366.671875 1174.636719 Z M 366.671875 318.886719 " clip-rule="nonzero"/></clipPath><clipPath id="6690a85442"><rect x="0" width="1048" y="0" height="145"/></clipPath><clipPath id="71999d83c7"><rect x="0" width="1121" y="0" height="247"/></clipPath></defs><g clip-path="url(#f64c1ad8d7)"><path fill="#0f2a44" d="M 1098.726562 992.253906 C 1111.773438 973.707031 1123.351562 954.078125 1133.351562 933.519531 L 1055.332031 933.519531 C 1000.34375 1002.429688 915.648438 1046.589844 820.632812 1046.589844 C 725.617188 1046.589844 640.917969 1002.429688 585.929688 933.519531 L 366.699219 933.519531 C 368.609375 938.152344 370.585938 942.75 372.632812 947.3125 L 465.554688 1008.664062 L 569.496094 948.65625 L 583.375 972.703125 L 464.578125 1041.289062 L 405.972656 1002.597656 C 442.746094 1051.730469 489.839844 1092.683594 544.035156 1122.257812 L 603.800781 1132.195312 L 674.34375 1035.097656 L 696.804688 1051.410156 L 621.496094 1155.070312 C 661.65625 1167.550781 704.34375 1174.28125 748.613281 1174.28125 C 760.441406 1174.28125 772.144531 1173.777344 783.726562 1172.839844 L 805.28125 1071.414062 L 832.441406 1077.191406 L 812.828125 1169.480469 C 863.546875 1161.839844 911.34375 1145.289062 954.589844 1121.480469 L 939.679688 1051.332031 L 966.832031 1045.5625 L 979.789062 1106.476562 C 1018.28125 1081.695312 1052.53125 1050.898438 1081.234375 1015.421875 L 1054.285156 978.328125 L 1076.746094 962.011719 Z M 585.78125 559.648438 C 640.765625 490.628906 725.527344 446.390625 820.632812 446.390625 C 915.734375 446.390625 1000.496094 490.628906 1055.480469 559.648438 L 1133.351562 559.648438 C 1116.003906 524.015625 1093.878906 491.152344 1067.765625 461.898438 L 1033.117188 493.085938 L 1014.542969 472.453125 L 1048.605469 441.785156 C 1017.304688 410.976562 981.292969 384.941406 941.730469 364.886719 L 912.59375 430.335938 L 887.230469 419.046875 L 916.566406 353.148438 C 873.242188 334.628906 826.242188 323.070312 776.960938 319.847656 L 776.960938 422.035156 L 749.195312 422.035156 L 749.195312 318.898438 C 749 318.898438 748.8125 318.886719 748.613281 318.886719 C 703.019531 318.886719 659.105469 326.054688 617.898438 339.261719 L 600.863281 359.976562 L 649.679688 469.621094 L 624.3125 480.917969 L 569.617188 358.066406 C 538.941406 372.21875 510.222656 389.882812 483.992188 410.566406 L 463.5625 484.554688 L 546.964844 559.648438 Z M 505.472656 559.648438 L 432.230469 493.707031 L 445.804688 444.550781 C 421.101562 469.316406 399.433594 497.105469 381.367188 527.296875 C 378.289062 533.449219 375.324219 539.667969 372.5 545.96875 L 374.5625 559.648438 Z M 783.207031 982.800781 C 730.394531 982.800781 681.636719 965.46875 642.300781 936.183594 C 689.257812 980.886719 752.804688 1008.335938 822.753906 1008.335938 C 894.085938 1008.335938 958.757812 979.796875 1005.96875 933.519531 L 927.605469 933.519531 C 887.671875 964.40625 837.59375 982.800781 783.207031 982.800781 Z M 822.753906 484.832031 C 752.804688 484.832031 689.257812 512.277344 642.300781 556.988281 C 681.636719 527.703125 730.394531 510.371094 783.207031 510.371094 C 837.59375 510.371094 887.679688 528.757812 927.605469 559.648438 L 1005.96875 559.648438 C 958.757812 513.375 894.085938 484.832031 822.753906 484.832031 " fill-opacity="1" fill-rule="nonzero"/></g><g transform="matrix(1, 0, 0, 1, 227, 592)"><g clip-path="url(#6690a85442)"><g fill="#0f2a44" fill-opacity="1"><g transform="translate(3.044525, 108.581951)"><g><path d="M 46.3125 0 L 9.9375 0 L 9.9375 -104.234375 L 43.375 -104.234375 C 49.8125 -104.234375 55.523438 -103.273438 60.515625 -101.359375 C 65.503906 -99.453125 69.421875 -96.492188 72.265625 -92.484375 C 75.109375 -88.472656 76.53125 -83.203125 76.53125 -76.671875 C 76.53125 -69.492188 74.0625 -63.617188 69.125 -59.046875 C 73.789062 -55.878906 77.3125 -52.101562 79.6875 -47.71875 C 82.0625 -43.332031 83.25 -38.617188 83.25 -33.578125 C 83.25 -26.492188 81.5 -20.453125 78 -15.453125 C 74.507812 -10.460938 69.960938 -6.640625 64.359375 -3.984375 C 58.765625 -1.328125 52.75 0 46.3125 0 Z M 31.625 -19.59375 L 47.015625 -19.59375 C 51.492188 -19.59375 54.941406 -20.800781 57.359375 -23.21875 C 59.785156 -25.644531 61 -28.863281 61 -32.875 C 61 -37.070312 59.785156 -40.382812 57.359375 -42.8125 C 54.941406 -45.238281 51.492188 -46.453125 47.015625 -46.453125 L 31.625 -46.453125 Z M 31.625 -65.34375 L 42.53125 -65.34375 C 46.082031 -65.34375 48.671875 -65.851562 50.296875 -66.875 C 51.929688 -67.90625 53.003906 -69.164062 53.515625 -70.65625 C 54.035156 -72.15625 54.296875 -73.601562 54.296875 -75 C 54.296875 -79.007812 53.082031 -81.617188 50.65625 -82.828125 C 48.226562 -84.046875 45.519531 -84.65625 42.53125 -84.65625 L 31.625 -84.65625 Z M 31.625 -65.34375 "/></g></g></g><g fill="#0f2a44" fill-opacity="1"><g transform="translate(87.107644, 108.581951)"><g><path d="M 59.609375 1.8125 C 52.140625 1.8125 45.140625 0.414062 38.609375 -2.375 C 32.085938 -5.175781 26.351562 -9.046875 21.40625 -13.984375 C 16.46875 -18.929688 12.597656 -24.671875 9.796875 -31.203125 C 6.992188 -37.734375 5.59375 -44.726562 5.59375 -52.1875 C 5.59375 -59.65625 6.992188 -66.628906 9.796875 -73.109375 C 12.597656 -79.585938 16.46875 -85.300781 21.40625 -90.25 C 26.351562 -95.195312 32.066406 -99.066406 38.546875 -101.859375 C 45.023438 -104.660156 52 -106.0625 59.46875 -106.0625 C 66.925781 -106.0625 73.921875 -104.660156 80.453125 -101.859375 C 86.984375 -99.066406 92.71875 -95.195312 97.65625 -90.25 C 102.601562 -85.300781 106.476562 -79.585938 109.28125 -73.109375 C 112.082031 -66.628906 113.484375 -59.65625 113.484375 -52.1875 C 113.484375 -44.726562 112.082031 -37.734375 109.28125 -31.203125 C 106.476562 -24.671875 102.601562 -18.929688 97.65625 -13.984375 C 92.71875 -9.046875 87.003906 -5.175781 80.515625 -2.375 C 74.035156 0.414062 67.066406 1.8125 59.609375 1.8125 Z M 59.46875 -85.359375 C 53.59375 -85.359375 48.25 -83.863281 43.4375 -80.875 C 38.632812 -77.882812 34.832031 -73.894531 32.03125 -68.90625 C 29.238281 -63.914062 27.84375 -58.34375 27.84375 -52.1875 C 27.84375 -46.03125 29.238281 -40.429688 32.03125 -35.390625 C 34.832031 -30.359375 38.632812 -26.375 43.4375 -23.4375 C 48.25 -20.5 53.640625 -19.03125 59.609375 -19.03125 C 65.484375 -19.03125 70.820312 -20.5 75.625 -23.4375 C 80.425781 -26.375 84.226562 -30.359375 87.03125 -35.390625 C 89.832031 -40.429688 91.234375 -46.03125 91.234375 -52.1875 C 91.234375 -58.34375 89.804688 -63.914062 86.953125 -68.90625 C 84.109375 -73.894531 80.285156 -77.882812 75.484375 -80.875 C 70.679688 -83.863281 65.34375 -85.359375 59.46875 -85.359375 Z M 59.46875 -85.359375 "/></g></g></g><g fill="#0f2a44" fill-opacity="1"><g transform="translate(201.383712, 108.581951)"><g><path d="M 42.53125 -18.046875 L 31.625 -18.046875 L 31.625 0 L 9.9375 0 L 9.9375 -104.234375 L 46.171875 -104.234375 C 52.328125 -104.234375 58.015625 -103.1875 63.234375 -101.09375 C 68.460938 -99 73.035156 -96.0625 76.953125 -92.28125 C 80.867188 -88.5 83.921875 -84.132812 86.109375 -79.1875 C 88.304688 -74.25 89.40625 -68.9375 89.40625 -63.25 C 89.40625 -53.914062 87.304688 -45.890625 83.109375 -39.171875 C 78.910156 -32.460938 73.175781 -27.425781 65.90625 -24.0625 L 88.4375 0 L 59.609375 0 Z M 31.625 -37.640625 L 40.578125 -37.640625 C 49.160156 -37.640625 55.734375 -39.691406 60.296875 -43.796875 C 64.867188 -47.898438 67.15625 -53.820312 67.15625 -61.5625 C 67.15625 -65.851562 66.316406 -69.722656 64.640625 -73.171875 C 62.960938 -76.628906 60.46875 -79.40625 57.15625 -81.5 C 53.84375 -83.601562 49.71875 -84.65625 44.78125 -84.65625 L 31.625 -84.65625 Z M 31.625 -37.640625 "/></g></g></g><g fill="#0f2a44" fill-opacity="1"><g transform="translate(291.0418, 108.581951)"><g><path d="M 42.53125 -18.046875 L 31.625 -18.046875 L 31.625 0 L 9.9375 0 L 9.9375 -104.234375 L 46.171875 -104.234375 C 52.328125 -104.234375 58.015625 -103.1875 63.234375 -101.09375 C 68.460938 -99 73.035156 -96.0625 76.953125 -92.28125 C 80.867188 -88.5 83.921875 -84.132812 86.109375 -79.1875 C 88.304688 -74.25 89.40625 -68.9375 89.40625 -63.25 C 89.40625 -53.914062 87.304688 -45.890625 83.109375 -39.171875 C 78.910156 -32.460938 73.175781 -27.425781 65.90625 -24.0625 L 88.4375 0 L 59.609375 0 Z M 31.625 -37.640625 L 40.578125 -37.640625 C 49.160156 -37.640625 55.734375 -39.691406 60.296875 -43.796875 C 64.867188 -47.898438 67.15625 -53.820312 67.15625 -61.5625 C 67.15625 -65.851562 66.316406 -69.722656 64.640625 -73.171875 C 62.960938 -76.628906 60.46875 -79.40625 57.15625 -81.5 C 53.84375 -83.601562 49.71875 -84.65625 44.78125 -84.65625 L 31.625 -84.65625 Z M 31.625 -37.640625 "/></g></g></g><g fill="#0f2a44" fill-opacity="1"><g transform="translate(380.699889, 108.581951)"><g><path d="M 85.625 0 L 78.78125 -14 L 28.265625 -14 L 21.546875 0 L -0.84375 0 L 54.15625 -106.0625 L 109.28125 0 Z M 53.3125 -66.046875 L 37.640625 -33.578125 L 69.265625 -33.578125 Z M 53.3125 -66.046875 "/></g></g></g><g fill="#0f2a44" fill-opacity="1"><g transform="translate(484.345449, 108.581951)"><g><path d="M 90.953125 -46.03125 L 112.921875 -46.03125 C 112.171875 -39.3125 110.253906 -33.0625 107.171875 -27.28125 C 104.097656 -21.5 100.132812 -16.4375 95.28125 -12.09375 C 90.4375 -7.757812 84.9375 -4.359375 78.78125 -1.890625 C 72.625 0.578125 66.09375 1.8125 59.1875 1.8125 C 51.726562 1.8125 44.753906 0.414062 38.265625 -2.375 C 31.785156 -5.175781 26.097656 -9.046875 21.203125 -13.984375 C 16.304688 -18.929688 12.476562 -24.644531 9.71875 -31.125 C 6.96875 -37.613281 5.59375 -44.585938 5.59375 -52.046875 C 5.59375 -59.515625 6.96875 -66.507812 9.71875 -73.03125 C 12.476562 -79.5625 16.304688 -85.300781 21.203125 -90.25 C 26.097656 -95.195312 31.785156 -99.066406 38.265625 -101.859375 C 44.753906 -104.660156 51.679688 -106.0625 59.046875 -106.0625 C 68.742188 -106.0625 77.671875 -103.75 85.828125 -99.125 C 93.992188 -94.507812 100.410156 -88.378906 105.078125 -80.734375 L 88.15625 -68.703125 C 84.414062 -74.296875 80.003906 -78.46875 74.921875 -81.21875 C 69.835938 -83.976562 64.59375 -85.359375 59.1875 -85.359375 C 53.40625 -85.359375 48.132812 -83.863281 43.375 -80.875 C 38.613281 -77.882812 34.832031 -73.867188 32.03125 -68.828125 C 29.238281 -63.796875 27.84375 -58.203125 27.84375 -52.046875 C 27.84375 -45.984375 29.238281 -40.429688 32.03125 -35.390625 C 34.832031 -30.359375 38.613281 -26.375 43.375 -23.4375 C 48.132812 -20.5 53.40625 -19.03125 59.1875 -19.03125 C 64.40625 -19.03125 69.226562 -20.195312 73.65625 -22.53125 C 78.09375 -24.863281 81.847656 -28.054688 84.921875 -32.109375 C 88.003906 -36.171875 90.015625 -40.8125 90.953125 -46.03125 Z M 90.953125 -46.03125 "/></g></g></g><g fill="#0f2a44" fill-opacity="1"><g transform="translate(598.061993, 108.581951)"><g><path d="M 9.9375 -104.234375 L 31.625 -104.234375 L 31.625 -65.203125 L 79.46875 -65.203125 L 79.46875 -104.234375 L 101.15625 -104.234375 L 101.15625 0 L 79.46875 0 L 79.46875 -45.75 L 31.625 -45.75 L 31.625 0 L 9.9375 0 Z M 9.9375 -104.234375 "/></g></g></g><g fill="#0f2a44" fill-opacity="1"><g transform="translate(704.36519, 108.581951)"><g><path d="M 85.625 0 L 78.78125 -14 L 28.265625 -14 L 21.546875 0 L -0.84375 0 L 54.15625 -106.0625 L 109.28125 0 Z M 53.3125 -66.046875 L 37.640625 -33.578125 L 69.265625 -33.578125 Z M 53.3125 -66.046875 "/></g></g></g><g fill="#0f2a44" fill-opacity="1"><g transform="translate(808.010705, 108.581951)"><g><path d="M 42.53125 -18.046875 L 31.625 -18.046875 L 31.625 0 L 9.9375 0 L 9.9375 -104.234375 L 46.171875 -104.234375 C 52.328125 -104.234375 58.015625 -103.1875 63.234375 -101.09375 C 68.460938 -99 73.035156 -96.0625 76.953125 -92.28125 C 80.867188 -88.5 83.921875 -84.132812 86.109375 -79.1875 C 88.304688 -74.25 89.40625 -68.9375 89.40625 -63.25 C 89.40625 -53.914062 87.304688 -45.890625 83.109375 -39.171875 C 78.910156 -32.460938 73.175781 -27.425781 65.90625 -24.0625 L 88.4375 0 L 59.609375 0 Z M 31.625 -37.640625 L 40.578125 -37.640625 C 49.160156 -37.640625 55.734375 -39.691406 60.296875 -43.796875 C 64.867188 -47.898438 67.15625 -53.820312 67.15625 -61.5625 C 67.15625 -65.851562 66.316406 -69.722656 64.640625 -73.171875 C 62.960938 -76.628906 60.46875 -79.40625 57.15625 -81.5 C 53.84375 -83.601562 49.71875 -84.65625 44.78125 -84.65625 L 31.625 -84.65625 Z M 31.625 -37.640625 "/></g></g></g><g fill="#0f2a44" fill-opacity="1"><g transform="translate(897.668838, 108.581951)"><g><path d="M 31.625 -104.234375 L 31.625 0 L 9.9375 0 L 9.9375 -104.234375 Z M 31.625 -104.234375 "/></g></g></g><g fill="#0f2a44" fill-opacity="1"><g transform="translate(934.454357, 108.581951)"><g><path d="M 85.625 0 L 78.78125 -14 L 28.265625 -14 L 21.546875 0 L -0.84375 0 L 54.15625 -106.0625 L 109.28125 0 Z M 53.3125 -66.046875 L 37.640625 -33.578125 L 69.265625 -33.578125 Z M 53.3125 -66.046875 "/></g></g></g></g></g><g transform="matrix(1, 0, 0, 1, 192, 704)"><g clip-path="url(#71999d83c7)"><g fill="#0f2a44" fill-opacity="1"><g transform="translate(2.553986, 189.71666)"><g><path d="M 134.890625 -160.890625 L 94.671875 0 L 46.25 0 L 13.140625 -132.984375 L 0 -132.984375 L 0 -160.890625 L 54.453125 -160.890625 L 76.609375 -58.5625 L 102.609375 -160.890625 Z M 134.890625 -160.890625 "/></g></g></g><g fill="#0f2a44" fill-opacity="1"><g transform="translate(137.443518, 189.71666)"><g><path d="M 54.171875 -132.703125 L 54.171875 -28.1875 L 68.40625 -28.1875 L 68.40625 0 L 0 0 L 0 -28.1875 L 13.953125 -28.1875 L 13.953125 -132.703125 L 0 -132.703125 L 0 -160.890625 L 68.40625 -160.890625 L 68.40625 -132.703125 Z M 54.171875 -132.703125 "/></g></g></g><g fill="#0f2a44" fill-opacity="1"><g transform="translate(205.845903, 189.71666)"><g><path d="M 118.75 -46.25 L 118.75 0 L 14.234375 0 L 14.234375 -132.703125 L 0 -132.703125 L 0 -160.890625 L 54.453125 -160.890625 L 54.453125 -28.1875 L 90.5625 -32.828125 L 90.5625 -46.25 Z M 118.75 -46.25 "/></g></g></g><g fill="#0f2a44" fill-opacity="1"><g transform="translate(324.59249, 189.71666)"><g><path d="M 138.734375 -28.1875 L 138.734375 0 L 84.28125 0 L 77.15625 -35.84375 L 42.6875 -32.828125 L 36.125 0 L 0 0 L 33.109375 -132.703125 L 26 -132.703125 L 26 -160.890625 L 92.484375 -160.890625 L 125.59375 -28.1875 Z M 71.6875 -64.03125 L 60.203125 -120.671875 L 48.984375 -64.296875 Z M 71.6875 -64.03125 "/></g></g></g><g fill="#0f2a44" fill-opacity="1"><g transform="translate(463.312586, 189.71666)"><g/></g></g><g fill="#0f2a44" fill-opacity="1"><g transform="translate(551.688477, 189.71666)"><g><path d="M 147.484375 -28.1875 L 147.484375 0 L 92.765625 0 L 50.34375 -81 L 50.34375 0 L 14.234375 0 L 14.234375 -132.984375 L 0 -132.984375 L 0 -160.890625 L 52.53125 -160.890625 L 97.140625 -76.34375 L 97.140625 -160.890625 L 133.25 -160.890625 L 133.25 -28.1875 Z M 147.484375 -28.1875 "/></g></g></g><g fill="#0f2a44" fill-opacity="1"><g transform="translate(699.164081, 189.71666)"><g><path d="M 126.6875 -145.015625 L 126.6875 -16.140625 L 110.546875 0 L 30.09375 0 L 13.953125 -16.140625 L 13.953125 -145.015625 L 30.09375 -160.890625 L 110.546875 -160.890625 Z M 86.46875 -128.875 L 54.171875 -132.984375 L 54.171875 -28.1875 L 86.46875 -32.28125 Z M 86.46875 -128.875 "/></g></g></g><g fill="#0f2a44" fill-opacity="1"><g transform="translate(839.799461, 189.71666)"><g><path d="M 134.890625 -160.890625 L 94.671875 0 L 46.25 0 L 13.140625 -132.984375 L 0 -132.984375 L 0 -160.890625 L 54.453125 -160.890625 L 76.609375 -58.5625 L 102.609375 -160.890625 Z M 134.890625 -160.890625 "/></g></g></g><g fill="#0f2a44" fill-opacity="1"><g transform="translate(974.688945, 189.71666)"><g><path d="M 138.734375 -28.1875 L 138.734375 0 L 84.28125 0 L 77.15625 -35.84375 L 42.6875 -32.828125 L 36.125 0 L 0 0 L 33.109375 -132.703125 L 26 -132.703125 L 26 -160.890625 L 92.484375 -160.890625 L 125.59375 -28.1875 Z M 71.6875 -64.03125 L 60.203125 -120.671875 L 48.984375 -64.296875 Z M 71.6875 -64.03125 "/></g></g></g></g></g></svg>